<svg width="24" height="24" viewBox="0 0 24 24" fill="currentColor" xmlns="http://www.w3.org/2000/svg" stroke="currentColor">
<path d="M16.6308 13.131C16.5743 13.189 16.3609 13.437 16.1622 13.641C14.9971 14.924 11.9576 17.024 10.3668 17.665C10.1252 17.768 9.51437 17.986 9.18802 18C8.8753 18 8.5772 17.928 8.29274 17.782C7.93814 17.578 7.65368 17.257 7.49781 16.878C7.39747 16.615 7.2416 15.828 7.2416 15.814C7.08573 14.953 7 13.554 7 12.008C7 10.535 7.08573 9.193 7.21335 8.319C7.22796 8.305 7.38383 7.327 7.55431 6.992C7.86702 6.38 8.47784 6 9.13151 6H9.18802C9.61374 6.015 10.509 6.395 10.509 6.409C12.0141 7.051 14.9834 9.048 16.1768 10.375C16.1768 10.375 16.5129 10.716 16.659 10.929C16.887 11.235 17 11.614 17 11.993C17 12.416 16.8724 12.81 16.6308 13.131Z"/>
</svg>